# Blender v2.91.0 OBJ File: 'LIGHT TUNNEL 01.blend'
# www.blender.org
mtllib HyperSpace_Tunnel.mtl
o Cylinder
v 0.000000 -36.151283 -1.000000
v 0.000000 36.151283 -0.048235
v 0.195090 -36.151283 -0.980785
v 0.009410 36.151283 -0.047308
v 0.382683 -36.151283 -0.923880
v 0.018459 36.151283 -0.044563
v 0.555570 -36.151283 -0.831470
v 0.026798 36.151283 -0.040106
v 0.707107 -36.151283 -0.707107
v 0.034107 36.151283 -0.034107
v 0.831470 -36.151283 -0.555570
v 0.040106 36.151283 -0.026798
v 0.923880 -36.151283 -0.382683
v 0.044563 36.151283 -0.018459
v 0.980785 -36.151283 -0.195090
v 0.047308 36.151283 -0.009410
v 1.000000 -36.151283 -0.000000
v 0.048235 36.151283 -0.000000
v 0.980785 -36.151283 0.195090
v 0.047308 36.151283 0.009410
v 0.923880 -36.151283 0.382683
v 0.044563 36.151283 0.018458
v 0.831470 -36.151283 0.555570
v 0.040106 36.151283 0.026797
v 0.707107 -36.151283 0.707107
v 0.034107 36.151283 0.034107
v 0.555570 -36.151283 0.831470
v 0.026798 36.151283 0.040105
v 0.382683 -36.151283 0.923880
v 0.018459 36.151283 0.044563
v 0.195090 -36.151283 0.980785
v 0.009410 36.151283 0.047307
v -0.000000 -36.151283 1.000000
v 0.000000 36.151283 0.048234
v -0.195091 -36.151283 0.980785
v -0.009410 36.151283 0.047307
v -0.382684 -36.151283 0.923879
v -0.018458 36.151283 0.044563
v -0.555571 -36.151283 0.831469
v -0.026798 36.151283 0.040105
v -0.707107 -36.151283 0.707106
v -0.034107 36.151283 0.034107
v -0.831470 -36.151283 0.555570
v -0.040105 36.151283 0.026797
v -0.923880 -36.151283 0.382683
v -0.044563 36.151283 0.018458
v -0.980785 -36.151283 0.195089
v -0.047308 36.151283 0.009410
v -1.000000 -36.151283 -0.000001
v -0.048234 36.151283 -0.000000
v -0.980785 -36.151283 -0.195091
v -0.047308 36.151283 -0.009410
v -0.923879 -36.151283 -0.382684
v -0.044563 36.151283 -0.018459
v -0.831469 -36.151283 -0.555571
v -0.040105 36.151283 -0.026798
v -0.707106 -36.151283 -0.707108
v -0.034107 36.151283 -0.034107
v -0.555569 -36.151283 -0.831470
v -0.026798 36.151283 -0.040106
v -0.382682 -36.151283 -0.923880
v -0.018458 36.151283 -0.044563
v -0.195089 -36.151283 -0.980786
v -0.009410 36.151283 -0.047308
v 0.000000 -0.041631 -1.000000
v 0.195090 -0.041631 -0.980785
v 0.382683 -0.041631 -0.923880
v 0.555570 -0.041631 -0.831470
v 0.707107 -0.041631 -0.707107
v 0.831470 -0.041631 -0.555570
v 0.923880 -0.041631 -0.382683
v 0.980785 -0.041631 -0.195090
v 1.000000 -0.041631 -0.000000
v 0.980785 -0.041631 0.195090
v 0.923880 -0.041631 0.382683
v 0.831470 -0.041631 0.555570
v 0.707107 -0.041631 0.707107
v 0.555570 -0.041631 0.831470
v 0.382683 -0.041631 0.923880
v 0.195090 -0.041631 0.980785
v -0.000000 -0.041631 1.000000
v -0.195091 -0.041631 0.980785
v -0.382684 -0.041631 0.923879
v -0.555571 -0.041631 0.831469
v -0.707107 -0.041631 0.707106
v -0.831470 -0.041631 0.555570
v -0.923880 -0.041631 0.382683
v -0.980785 -0.041631 0.195089
v -1.000000 -0.041631 -0.000001
v -0.980785 -0.041631 -0.195091
v -0.923879 -0.041631 -0.382684
v -0.831469 -0.041631 -0.555571
v -0.707106 -0.041631 -0.707108
v -0.555569 -0.041631 -0.831470
v -0.382682 -0.041631 -0.923880
v -0.195089 -0.041631 -0.980786
v 0.000000 29.872044 -1.000000
v 0.195090 29.872044 -0.980785
v 0.382683 29.872044 -0.923880
v 0.555570 29.872044 -0.831470
v 0.707107 29.872044 -0.707107
v 0.831470 29.872044 -0.555570
v 0.923880 29.872044 -0.382683
v 0.980785 29.872044 -0.195090
v 1.000000 29.872044 -0.000000
v 0.980785 29.872044 0.195090
v 0.923880 29.872044 0.382683
v 0.831470 29.872044 0.555570
v 0.707107 29.872044 0.707107
v 0.555570 29.872044 0.831470
v 0.382683 29.872044 0.923880
v 0.195090 29.872044 0.980785
v -0.000000 29.872044 1.000000
v -0.195091 29.872044 0.980785
v -0.382684 29.872044 0.923879
v -0.555571 29.872044 0.831469
v -0.707107 29.872044 0.707106
v -0.831470 29.872044 0.555570
v -0.923880 29.872044 0.382683
v -0.980785 29.872044 0.195089
v -1.000000 29.872044 -0.000001
v -0.980785 29.872044 -0.195091
v -0.923879 29.872044 -0.382684
v -0.831469 29.872044 -0.555571
v -0.707106 29.872044 -0.707108
v -0.555569 29.872044 -0.831470
v -0.382682 29.872044 -0.923880
v -0.195089 29.872044 -0.980786
vt 1.936310 0.000000
vt 1.936310 0.031250
vt 2.238229 0.031250
vt 2.238229 0.000000
vt 1.936310 0.062500
vt 2.238229 0.062500
vt 1.936310 0.093750
vt 2.238229 0.093750
vt 1.936310 0.125000
vt 2.238229 0.125000
vt 1.936310 0.156250
vt 2.238229 0.156250
vt 1.936310 0.187500
vt 2.238229 0.187500
vt 1.936310 0.218750
vt 2.238229 0.218750
vt 1.936310 0.250000
vt 2.238229 0.250000
vt 1.936310 0.281250
vt 2.238229 0.281250
vt 1.936310 0.312500
vt 2.238229 0.312500
vt 1.936310 0.343750
vt 2.238229 0.343750
vt 1.936310 0.375000
vt 2.238229 0.375000
vt 1.936310 0.406250
vt 2.238229 0.406250
vt 1.936310 0.437500
vt 2.238229 0.437500
vt 1.936310 0.468750
vt 2.238229 0.468750
vt 1.936310 0.500000
vt 2.238229 0.500000
vt 1.936310 0.531250
vt 2.238229 0.531250
vt 1.936310 0.562500
vt 2.238229 0.562500
vt 1.936310 0.593750
vt 2.238229 0.593750
vt 1.936310 0.625000
vt 2.238229 0.625000
vt 1.936310 0.656250
vt 2.238229 0.656250
vt 1.936310 0.687500
vt 2.238229 0.687500
vt 1.936310 0.718750
vt 2.238229 0.718750
vt 1.936310 0.750000
vt 2.238229 0.750000
vt 1.936310 0.781250
vt 2.238229 0.781250
vt 1.936310 0.812500
vt 2.238229 0.812500
vt 1.936310 0.843750
vt 2.238229 0.843750
vt 1.936310 0.875000
vt 2.238229 0.875000
vt 1.936310 0.906250
vt 2.238229 0.906250
vt 1.936310 0.937500
vt 2.238229 0.937500
vt 1.936310 0.968750
vt 2.238229 0.968750
vt 1.936310 1.000000
vt 2.238229 1.000000
vt -1.238229 0.968750
vt -1.238229 1.000000
vt 0.497998 1.000000
vt 0.497998 0.968750
vt -1.238229 0.937500
vt 0.497998 0.937500
vt -1.238229 0.906250
vt 0.497998 0.906250
vt -1.238229 0.875000
vt 0.497998 0.875000
vt -1.238229 0.843750
vt 0.497998 0.843750
vt -1.238229 0.812500
vt 0.497998 0.812500
vt -1.238229 0.781250
vt 0.497998 0.781250
vt -1.238229 0.750000
vt 0.497998 0.750000
vt -1.238229 0.718750
vt 0.497998 0.718750
vt -1.238229 0.687500
vt 0.497998 0.687500
vt -1.238229 0.656250
vt 0.497998 0.656250
vt -1.238229 0.625000
vt 0.497998 0.625000
vt -1.238229 0.593750
vt 0.497998 0.593750
vt -1.238229 0.562500
vt 0.497998 0.562500
vt -1.238229 0.531250
vt 0.497998 0.531250
vt -1.238229 0.500000
vt 0.497998 0.500000
vt -1.238229 0.468750
vt 0.497998 0.468750
vt -1.238229 0.437500
vt 0.497998 0.437500
vt -1.238229 0.406250
vt 0.497998 0.406250
vt -1.238229 0.375000
vt 0.497998 0.375000
vt -1.238229 0.343750
vt 0.497998 0.343750
vt -1.238229 0.312500
vt 0.497998 0.312500
vt -1.238229 0.281250
vt 0.497998 0.281250
vt -1.238229 0.250000
vt 0.497998 0.250000
vt -1.238229 0.218750
vt 0.497998 0.218750
vt -1.238229 0.187500
vt 0.497998 0.187500
vt -1.238229 0.156250
vt 0.497998 0.156250
vt -1.238229 0.125000
vt 0.497998 0.125000
vt -1.238229 0.093750
vt 0.497998 0.093750
vt -1.238229 0.062500
vt 0.497998 0.062500
vt -1.238229 0.031250
vt 0.497998 0.031250
vt -1.238229 0.000000
vt 0.497998 0.000000
vt 0.580291 0.822309
vt 0.581985 0.821403
vt 0.585736 0.820657
vt 0.585736 0.840261
vt 0.583824 0.840072
vt 0.591182 0.838609
vt 0.580291 0.838609
vt 0.577586 0.835904
vt 0.581985 0.839515
vt 0.589487 0.839515
vt 0.587649 0.840072
vt 0.578805 0.837390
vt 0.587649 0.820845
vt 0.592667 0.823528
vt 0.577586 0.825013
vt 0.592667 0.837390
vt 0.594792 0.834210
vt 0.593886 0.835904
vt 0.576681 0.834210
vt 0.595350 0.832371
vt 0.576123 0.832371
vt 0.595538 0.830459
vt 0.575935 0.830459
vt 0.576123 0.828547
vt 0.576681 0.826708
vt 0.595350 0.828547
vt 0.594792 0.826708
vt 0.593886 0.825013
vt 0.578805 0.823528
vt 0.591182 0.822309
vt 0.589487 0.821403
vt 0.583824 0.820845
vn -0.0969 -0.1492 0.9841
vn -0.2870 -0.1492 0.9462
vn -0.4661 -0.1492 0.8721
vn -0.6273 -0.1492 0.7644
vn -0.7644 -0.1492 0.6273
vn -0.8721 -0.1492 0.4661
vn -0.9462 -0.1492 0.2870
vn -0.9841 -0.1492 0.0969
vn -0.9841 -0.1492 -0.0969
vn -0.9462 -0.1492 -0.2870
vn -0.8721 -0.1492 -0.4661
vn -0.7644 -0.1492 -0.6273
vn -0.6273 -0.1492 -0.7644
vn -0.4661 -0.1492 -0.8721
vn -0.2870 -0.1492 -0.9462
vn -0.0969 -0.1492 -0.9841
vn 0.0969 -0.1492 -0.9841
vn 0.2870 -0.1492 -0.9462
vn 0.4661 -0.1492 -0.8721
vn 0.6273 -0.1492 -0.7644
vn 0.7644 -0.1492 -0.6273
vn 0.8721 -0.1492 -0.4661
vn 0.9462 -0.1492 -0.2870
vn 0.9841 -0.1492 -0.0969
vn 0.9841 -0.1492 0.0969
vn 0.9462 -0.1492 0.2870
vn 0.8721 -0.1492 0.4661
vn 0.7644 -0.1492 0.6273
vn 0.6273 -0.1492 0.7644
vn 0.4661 -0.1492 0.8721
vn 0.2870 -0.1492 0.9462
vn 0.0969 -0.1492 0.9841
vn 0.0980 0.0000 0.9952
vn 0.2903 0.0000 0.9569
vn 0.4714 0.0000 0.8819
vn 0.6344 0.0000 0.7730
vn 0.7730 0.0000 0.6344
vn 0.8819 0.0000 0.4714
vn 0.9569 0.0000 0.2903
vn 0.9952 0.0000 0.0980
vn 0.9952 0.0000 -0.0980
vn 0.9569 0.0000 -0.2903
vn 0.8819 0.0000 -0.4714
vn 0.7730 0.0000 -0.6344
vn 0.6344 0.0000 -0.7730
vn 0.4714 0.0000 -0.8819
vn 0.2903 0.0000 -0.9569
vn 0.0980 0.0000 -0.9952
vn -0.0980 0.0000 -0.9952
vn -0.2903 0.0000 -0.9569
vn -0.4714 0.0000 -0.8819
vn -0.6344 0.0000 -0.7730
vn -0.7730 0.0000 -0.6344
vn -0.8819 0.0000 -0.4714
vn -0.9569 0.0000 -0.2903
vn -0.9952 0.0000 -0.0980
vn -0.9952 0.0000 0.0980
vn -0.9569 0.0000 0.2903
vn -0.8819 0.0000 0.4714
vn -0.7730 0.0000 0.6344
vn -0.6344 0.0000 0.7730
vn -0.4714 0.0000 0.8819
vn -0.2903 0.0000 0.9569
vn -0.0980 0.0000 0.9952
vn 0.0000 -1.0000 0.0000
vn 0.0000 -1.0000 0.0024
vn 0.0000 -1.0000 -0.0068
vn 0.0000 -1.0000 -0.0002
vn 0.0000 -1.0000 0.0004
vn 0.0000 -1.0000 -0.0034
vn 0.0000 -1.0000 0.0006
vn 0.0000 -1.0000 -0.0005
vn 0.0000 -1.0000 -0.0008
vn 0.0000 -1.0000 -0.0012
vn 0.0000 -1.0000 -0.0010
vn 0.0000 -1.0000 0.0002
usemtl Material.001
s off
f 97/1/1 98/2/1 4/3/1 2/4/1
f 98/2/2 99/5/2 6/6/2 4/3/2
f 99/5/3 100/7/3 8/8/3 6/6/3
f 100/7/4 101/9/4 10/10/4 8/8/4
f 101/9/5 102/11/5 12/12/5 10/10/5
f 102/11/6 103/13/6 14/14/6 12/12/6
f 103/13/7 104/15/7 16/16/7 14/14/7
f 104/15/8 105/17/8 18/18/8 16/16/8
f 105/17/9 106/19/9 20/20/9 18/18/9
f 106/19/10 107/21/10 22/22/10 20/20/10
f 107/21/11 108/23/11 24/24/11 22/22/11
f 108/23/12 109/25/12 26/26/12 24/24/12
f 109/25/13 110/27/13 28/28/13 26/26/13
f 110/27/14 111/29/14 30/30/14 28/28/14
f 111/29/15 112/31/15 32/32/15 30/30/15
f 112/31/16 113/33/16 34/34/16 32/32/16
f 113/33/17 114/35/17 36/36/17 34/34/17
f 114/35/18 115/37/18 38/38/18 36/36/18
f 115/37/19 116/39/19 40/40/19 38/38/19
f 116/39/20 117/41/20 42/42/20 40/40/20
f 117/41/21 118/43/21 44/44/21 42/42/21
f 118/43/22 119/45/22 46/46/22 44/44/22
f 119/45/23 120/47/23 48/48/23 46/46/23
f 120/47/24 121/49/24 50/50/24 48/48/24
f 121/49/25 122/51/25 52/52/25 50/50/25
f 122/51/26 123/53/26 54/54/26 52/52/26
f 123/53/27 124/55/27 56/56/27 54/54/27
f 124/55/28 125/57/28 58/58/28 56/56/28
f 125/57/29 126/59/29 60/60/29 58/58/29
f 126/59/30 127/61/30 62/62/30 60/60/30
f 127/61/31 128/63/31 64/64/31 62/62/31
f 128/63/32 97/65/32 2/66/32 64/64/32
f 63/67/33 1/68/33 65/69/33 96/70/33
f 61/71/34 63/67/34 96/70/34 95/72/34
f 59/73/35 61/71/35 95/72/35 94/74/35
f 57/75/36 59/73/36 94/74/36 93/76/36
f 55/77/37 57/75/37 93/76/37 92/78/37
f 53/79/38 55/77/38 92/78/38 91/80/38
f 51/81/39 53/79/39 91/80/39 90/82/39
f 49/83/40 51/81/40 90/82/40 89/84/40
f 47/85/41 49/83/41 89/84/41 88/86/41
f 45/87/42 47/85/42 88/86/42 87/88/42
f 43/89/43 45/87/43 87/88/43 86/90/43
f 41/91/44 43/89/44 86/90/44 85/92/44
f 39/93/45 41/91/45 85/92/45 84/94/45
f 37/95/46 39/93/46 84/94/46 83/96/46
f 35/97/47 37/95/47 83/96/47 82/98/47
f 33/99/48 35/97/48 82/98/48 81/100/48
f 31/101/49 33/99/49 81/100/49 80/102/49
f 29/103/50 31/101/50 80/102/50 79/104/50
f 27/105/51 29/103/51 79/104/51 78/106/51
f 25/107/52 27/105/52 78/106/52 77/108/52
f 23/109/53 25/107/53 77/108/53 76/110/53
f 21/111/54 23/109/54 76/110/54 75/112/54
f 19/113/55 21/111/55 75/112/55 74/114/55
f 17/115/56 19/113/56 74/114/56 73/116/56
f 15/117/57 17/115/57 73/116/57 72/118/57
f 13/119/58 15/117/58 72/118/58 71/120/58
f 11/121/59 13/119/59 71/120/59 70/122/59
f 9/123/60 11/121/60 70/122/60 69/124/60
f 7/125/61 9/123/61 69/124/61 68/126/61
f 5/127/62 7/125/62 68/126/62 67/128/62
f 3/129/63 5/127/63 67/128/63 66/130/63
f 1/131/64 3/129/64 66/130/64 65/132/64
f 96/70/33 65/69/33 97/65/33 128/63/33
f 95/72/34 96/70/34 128/63/34 127/61/34
f 94/74/35 95/72/35 127/61/35 126/59/35
f 93/76/36 94/74/36 126/59/36 125/57/36
f 92/78/37 93/76/37 125/57/37 124/55/37
f 91/80/38 92/78/38 124/55/38 123/53/38
f 90/82/39 91/80/39 123/53/39 122/51/39
f 89/84/40 90/82/40 122/51/40 121/49/40
f 88/86/41 89/84/41 121/49/41 120/47/41
f 87/88/42 88/86/42 120/47/42 119/45/42
f 86/90/43 87/88/43 119/45/43 118/43/43
f 85/92/44 86/90/44 118/43/44 117/41/44
f 84/94/45 85/92/45 117/41/45 116/39/45
f 83/96/46 84/94/46 116/39/46 115/37/46
f 82/98/47 83/96/47 115/37/47 114/35/47
f 81/100/48 82/98/48 114/35/48 113/33/48
f 80/102/49 81/100/49 113/33/49 112/31/49
f 79/104/50 80/102/50 112/31/50 111/29/50
f 78/106/51 79/104/51 111/29/51 110/27/51
f 77/108/52 78/106/52 110/27/52 109/25/52
f 76/110/53 77/108/53 109/25/53 108/23/53
f 75/112/54 76/110/54 108/23/54 107/21/54
f 74/114/55 75/112/55 107/21/55 106/19/55
f 73/116/56 74/114/56 106/19/56 105/17/56
f 72/118/57 73/116/57 105/17/57 104/15/57
f 71/120/58 72/118/58 104/15/58 103/13/58
f 70/122/59 71/120/59 103/13/59 102/11/59
f 69/124/60 70/122/60 102/11/60 101/9/60
f 68/126/61 69/124/61 101/9/61 100/7/61
f 67/128/62 68/126/62 100/7/62 99/5/62
f 66/130/63 67/128/63 99/5/63 98/2/63
f 65/132/64 66/130/64 98/2/64 97/1/64
f 28/133/65 30/134/65 34/135/65
f 2/136/66 4/137/66 60/138/66
f 4/137/65 8/139/65 12/140/65
f 4/137/65 6/141/65 8/139/65
f 62/142/67 64/143/67 2/136/67
f 60/138/68 4/137/68 12/140/68
f 10/144/65 12/140/65 8/139/65
f 36/145/69 42/146/69 24/147/69
f 58/148/65 60/138/65 54/149/65
f 56/150/70 58/148/70 54/149/70
f 54/149/68 12/140/68 14/151/68
f 52/152/71 54/149/71 14/151/71
f 52/152/68 14/151/68 16/153/68
f 50/154/65 52/152/65 16/153/65
f 50/154/65 16/153/65 18/155/65
f 20/156/65 22/157/65 18/155/65
f 22/157/65 50/154/65 18/155/65
f 48/158/65 50/154/65 46/159/65
f 46/159/65 50/154/65 44/160/65
f 44/160/72 22/157/72 24/147/72
f 42/146/73 44/160/73 24/147/73
f 62/142/65 2/136/65 60/138/65
f 24/147/65 26/161/65 28/133/65
f 28/133/65 34/135/65 24/147/65
f 36/145/74 40/162/74 42/146/74
f 34/135/75 36/145/75 24/147/75
f 36/145/65 38/163/65 40/162/65
f 32/164/65 34/135/65 30/134/65
f 60/138/65 12/140/65 54/149/65
f 50/154/76 22/157/76 44/160/76
